<?xml version="1.0" encoding="UTF-8"?>
<svg xmlns="http://www.w3.org/2000/svg" viewBox="0 0 1200 630" width="1200" height="630">
  <defs>
    <linearGradient id="g69936" x1="75.75190374550272%" y1="7.141634964894386%" x2="24.248096254497288%" y2="92.8583650351056%">
      <stop offset="0%" stop-color="#0891B2"/>
      <stop offset="100%" stop-color="#0E7490"/>
    </linearGradient>
  </defs>
  <rect width="1200" height="630" fill="url(#g69936)"/>
  <polygon points="227.07524296827614,250 347.07524296827614,190 467.07524296827614,250" fill="rgba(255,255,255,0.06)" stroke="rgba(255,255,255,0.12)" stroke-width="2"/><rect x="241.07524296827614" y="250" width="12" height="150" fill="rgba(255,255,255,0.08)"/><rect x="291.07524296827614" y="250" width="12" height="150" fill="rgba(255,255,255,0.08)"/><rect x="341.07524296827614" y="250" width="12" height="150" fill="rgba(255,255,255,0.08)"/><rect x="391.07524296827614" y="250" width="12" height="150" fill="rgba(255,255,255,0.08)"/><rect x="441.07524296827614" y="250" width="12" height="150" fill="rgba(255,255,255,0.08)"/><rect x="217.07524296827614" y="400" width="260" height="12" rx="2" fill="rgba(255,255,255,0.1)"/><path d="M 874.1036748397164 162.33809769153595 L 919.1036748397164 182.33809769153595 L 919.1036748397164 222.33809769153595 C 919.1036748397164 252.33809769153595 874.1036748397164 272.33809769153595 874.1036748397164 272.33809769153595 C 874.1036748397164 272.33809769153595 829.1036748397164 252.33809769153595 829.1036748397164 222.33809769153595 L 829.1036748397164 182.33809769153595 Z" fill="rgba(255,255,255,0.06)" stroke="rgba(255,255,255,0.15)" stroke-width="2"/><text x="1058.764073671773" y="181.27443159930408" font-family="sans-serif" font-size="24.526055668480694" fill="rgba(255,255,255,0.1770602168235928)">★</text><text x="727.1367112640291" y="122.25078672170639" font-family="sans-serif" font-size="31.13075635302812" fill="rgba(255,255,255,0.10627921411767602)">★</text><text x="735.0897095398977" y="125.08107951842248" font-family="sans-serif" font-size="32.009701010771096" fill="rgba(255,255,255,0.0872145427344367)">★</text><text x="604.9186905380338" y="177.27433558553457" font-family="sans-serif" font-size="34.52995821274817" fill="rgba(255,255,255,0.1568984526861459)">★</text><text x="767.5269897095859" y="133.25145306997" font-family="sans-serif" font-size="17.279960107058287" fill="rgba(255,255,255,0.11990368493832648)">★</text>
  <circle cx="95.78581172972918" cy="92.99929697765037" r="1.3622746244072914" fill="rgba(255,255,255,0.07963144457433373)"/><circle cx="357.30653470382094" cy="472.0292891655117" r="2.2141290833242238" fill="rgba(255,255,255,0.07366406460758299)"/><circle cx="183.54709781706333" cy="304.1817811690271" r="2.4772369163110852" fill="rgba(255,255,255,0.03231190639315173)"/><circle cx="851.449272595346" cy="429.5077007962391" r="2.0589784807525575" fill="rgba(255,255,255,0.04764388534938917)"/><circle cx="437.5201938673854" cy="459.3146086251363" r="2.204306515865028" fill="rgba(255,255,255,0.06467653285479173)"/><circle cx="250.39519211277366" cy="206.81272339308634" r="1.3556624515913427" fill="rgba(255,255,255,0.05995967523893342)"/><circle cx="165.81669207662344" cy="426.6459686192684" r="1.6163387796841562" fill="rgba(255,255,255,0.0777492472389713)"/><circle cx="1145.123829971999" cy="178.91681417590007" r="1.6063666646368802" fill="rgba(255,255,255,0.05434018193744123)"/><circle cx="567.5963723100722" cy="255.97508231643587" r="1.8745381589978933" fill="rgba(255,255,255,0.06190926070092246)"/><circle cx="521.1083301343024" cy="354.03335199225694" r="2.7353473189286888" fill="rgba(255,255,255,0.05568576243938878)"/><circle cx="798.0146454647183" cy="208.35806120652705" r="1.6485769492574036" fill="rgba(255,255,255,0.047926082899793984)"/><circle cx="468.7765675596893" cy="285.04469765815884" r="1.788524713832885" fill="rgba(255,255,255,0.050688416971825065)"/><circle cx="1169.1987114027143" cy="299.52334087807685" r="1.195466904900968" fill="rgba(255,255,255,0.07116455109324307)"/><circle cx="37.99331020563841" cy="525.4371973173693" r="1.0859854789450765" fill="rgba(255,255,255,0.048143359723035246)"/><circle cx="1052.01600138098" cy="63.92113894689828" r="2.809906393289566" fill="rgba(255,255,255,0.0691983650973998)"/><circle cx="112.5282883644104" cy="580.7065204298124" r="2.764111847151071" fill="rgba(255,255,255,0.07523247310426087)"/><circle cx="999.9873862601817" cy="421.89120682887733" r="1.146961981896311" fill="rgba(255,255,255,0.07794033637735992)"/><circle cx="606.8704538047314" cy="580.9966327250004" r="2.42912061419338" fill="rgba(255,255,255,0.04568947649793699)"/><circle cx="1022.692012321204" cy="571.7531238659285" r="2.26410915190354" fill="rgba(255,255,255,0.040128903144504874)"/><circle cx="1127.7604702860117" cy="529.8263142979704" r="2.9609736185520887" fill="rgba(255,255,255,0.045266214567236604)"/>
  <text x="600" y="335" font-family="system-ui, -apple-system, 'Segoe UI', sans-serif" font-size="68" font-weight="700" fill="rgba(0,0,0,0.15)" text-anchor="middle" letter-spacing="1">IBPS Po</text>
  <text x="600" y="332" font-family="system-ui, -apple-system, 'Segoe UI', sans-serif" font-size="68" font-weight="700" fill="white" text-anchor="middle" letter-spacing="1">IBPS Po</text>
  <g transform="translate(1140, 575)">
    <rect x="0" y="0" width="40" height="40" rx="8" fill="rgba(255,255,255,0.15)"/>
    <text x="20" y="29" font-family="sans-serif" font-weight="bold" font-size="24" fill="rgba(255,255,255,0.6)" text-anchor="middle">K</text>
  </g>
</svg>